<?xml version="1.0" standalone="no"?>
<!DOCTYPE svg PUBLIC "-//W3C//DTD SVG 20010904//EN"
 "http://www.w3.org/TR/2001/REC-SVG-20010904/DTD/svg10.dtd">
<svg version="1.0" xmlns="http://www.w3.org/2000/svg"
 width="720.000000pt" height="720.000000pt" viewBox="0 0 720.000000 720.000000"
 preserveAspectRatio="xMidYMid meet">
<metadata>
Created by potrace 1.14, written by Peter Selinger 2001-2017
</metadata>
<g transform="translate(0.000000,720.000000) scale(0.100000,-0.100000)"
fill="#000000" stroke="none">
<path d="M3192 6424 c-109 -29 -282 -46 -529 -51 -260 -6 -281 -9 -267 -47 5
-14 33 -16 233 -16 220 0 326 9 576 45 166 25 426 6 650 -45 153 -35 374 -126
453 -186 81 -63 142 -184 142 -286 0 -27 9 -95 20 -151 20 -95 24 -104 61
-138 21 -20 51 -40 66 -44 51 -13 138 -84 176 -145 20 -32 23 -54 30 -255 4
-121 8 -240 9 -265 1 -28 -15 -95 -41 -175 -22 -71 -41 -144 -41 -162 0 -32
-1 -33 -27 -26 -39 11 -111 8 -153 -5 -51 -17 -140 -108 -140 -142 0 -23 15
-40 35 -40 2 0 28 24 57 54 44 45 61 55 100 61 64 10 96 0 133 -39 60 -64 74
-185 29 -252 -56 -81 -127 -124 -222 -132 -55 -4 -65 -2 -83 17 -26 28 -47 27
-60 -3 -8 -17 -8 -29 0 -44 8 -15 7 -23 -4 -32 -11 -10 -15 -37 -15 -114 0
-192 -49 -376 -116 -440 -114 -107 -374 -226 -587 -269 -170 -35 -269 -48
-382 -50 -116 -2 -124 -1 -224 35 -57 20 -133 55 -170 76 -36 22 -98 58 -137
80 -107 62 -179 128 -249 227 -94 134 -145 250 -145 327 0 32 -9 32 119 2 93
-21 283 -15 348 11 50 20 133 111 162 176 11 24 34 98 51 164 18 66 37 123 44
127 6 4 45 8 87 8 65 0 82 -4 114 -26 41 -27 62 -28 78 -3 32 50 -87 112 -207
108 -53 -2 -71 1 -75 12 -16 52 -90 110 -182 144 -125 47 -191 58 -354 59
l-160 2 -3 114 c-4 146 13 406 36 535 l17 100 57 27 c90 43 199 76 325 99 108
20 142 21 391 16 l272 -5 53 -30 c75 -42 169 -75 360 -127 92 -25 183 -53 201
-62 l34 -16 5 -186 c5 -213 23 -294 98 -444 58 -114 67 -146 57 -184 -11 -41
-30 -42 -113 -7 -177 75 -315 99 -530 92 -125 -5 -145 -8 -191 -31 -27 -14
-55 -36 -61 -50 -7 -14 -12 -98 -12 -213 -1 -172 1 -195 21 -253 26 -72 82
-143 137 -171 20 -10 82 -30 136 -45 90 -25 115 -27 246 -26 209 2 346 37 368
94 42 105 55 168 58 283 3 128 -3 150 -44 142 -14 -3 -20 -17 -25 -68 -24
-208 -58 -333 -94 -343 -76 -22 -119 -27 -255 -28 -130 -2 -167 2 -238 20
-104 27 -153 52 -180 90 -44 61 -51 103 -51 301 l0 188 33 13 c49 21 389 18
481 -5 92 -22 316 -117 337 -143 8 -9 17 -5 36 18 23 26 24 33 13 59 -10 24
-9 38 4 76 19 56 20 90 5 100 -21 13 -119 230 -139 309 -15 58 -22 126 -26
245 -7 189 -14 222 -52 240 -46 21 -163 60 -247 81 -124 31 -233 68 -310 103
-127 60 -179 67 -465 63 -320 -5 -381 -16 -675 -123 -57 -21 -90 -63 -103
-131 -20 -104 -42 -316 -42 -413 0 -115 -10 -139 -34 -80 -30 76 -46 163 -46
261 0 94 0 96 -35 136 -32 38 -100 165 -138 261 -9 23 -23 42 -31 42 -21 0
-26 23 -26 117 0 96 36 256 74 332 34 66 136 206 196 268 54 56 61 86 23 91
-14 2 -35 -11 -63 -40 -52 -53 -147 -176 -189 -245 -18 -29 -40 -54 -49 -57
-23 -8 -43 -135 -49 -314 -6 -173 0 -217 38 -255 17 -16 55 -80 86 -141 30
-61 64 -123 74 -138 15 -20 19 -44 19 -108 0 -102 19 -179 75 -297 24 -50 46
-106 50 -123 6 -27 4 -31 -24 -41 -52 -18 -51 -72 2 -74 12 -1 32 -7 45 -14
26 -14 62 -6 62 14 0 21 25 25 156 25 181 0 350 -39 418 -97 18 -16 41 -32 50
-38 16 -9 15 -18 -13 -135 -16 -69 -39 -151 -50 -183 -24 -69 -92 -154 -138
-173 -47 -20 -248 -17 -348 5 l-80 17 1 95 c1 52 5 166 9 254 7 140 6 162 -8
173 -18 15 -57 7 -58 -11 0 -7 -2 -59 -3 -117 -4 -115 -23 -310 -31 -319 -13
-12 -40 18 -51 56 -7 22 -15 98 -19 169 -7 136 -16 161 -53 150 -25 -8 -32
-48 -32 -187 0 -126 13 -196 49 -270 24 -51 28 -54 66 -57 l41 -3 10 -67 c20
-120 72 -224 219 -429 17 -23 44 -49 60 -58 17 -8 46 -29 65 -45 35 -29 189
-120 290 -172 69 -35 192 -75 259 -84 l51 -7 0 -76 c0 -118 -8 -151 -36 -151
-53 0 -50 -85 5 -150 37 -44 141 -79 256 -87 127 -8 150 1 262 110 93 90 115
129 78 143 -12 5 -15 31 -15 148 l0 142 71 23 c195 63 381 166 476 263 48 49
53 60 76 153 33 129 49 248 46 343 l-2 77 36 -3 c48 -5 142 15 191 40 53 27
134 104 157 151 11 21 23 60 26 87 5 47 -11 144 -29 166 -5 7 -11 27 -13 44
-2 18 -9 38 -14 43 -20 20 -10 71 53 277 15 47 26 94 26 105 0 11 -4 135 -8
275 l-7 255 -42 62 c-52 75 -107 121 -193 162 -36 17 -70 39 -77 49 -6 10 -16
61 -23 113 -23 191 -72 339 -134 408 -70 78 -302 186 -516 241 -206 53 -579
77 -698 44z m518 -3416 c7 -325 13 -300 -84 -387 l-48 -43 -107 4 c-115 5
-190 28 -210 66 -13 25 -14 45 -2 38 4 -3 16 0 26 8 22 16 34 83 34 192 l1 81
46 7 c26 3 68 6 93 7 25 0 87 8 136 18 113 23 115 24 115 9z"/>
<path d="M2524 4806 c-37 -17 -47 -38 -30 -62 12 -16 18 -17 69 -4 39 9 86 11
160 6 102 -7 105 -7 112 15 5 14 1 27 -9 38 -23 22 -256 28 -302 7z"/>
<path d="M3724 4722 c-17 -11 -22 -35 -13 -54 8 -15 24 -17 109 -15 68 1 103
-2 111 -10 33 -33 89 0 68 39 -19 35 -63 48 -166 48 -54 0 -103 -4 -109 -8z"/>
<path d="M2580 4413 c-18 -16 -35 -44 -39 -64 -11 -48 1 -124 24 -149 25 -27
70 -26 99 3 45 45 46 192 3 222 -31 22 -53 19 -87 -12z"/>
<path d="M3761 4314 c-36 -30 -46 -72 -36 -149 6 -48 10 -56 43 -75 70 -42
122 10 122 123 0 86 -27 126 -87 127 -6 0 -25 -12 -42 -26z"/>
<path d="M4595 4238 c-105 -38 -197 -141 -168 -187 19 -30 51 -25 69 11 21 44
87 93 149 111 39 11 51 19 53 37 6 39 -39 51 -103 28z"/>
<path d="M3119 4021 c-25 -25 -29 -37 -29 -83 0 -49 3 -57 38 -91 40 -39 60
-45 80 -25 19 19 15 34 -19 72 -40 46 -35 69 15 77 34 6 55 21 56 41 0 19 -35
38 -71 38 -31 0 -47 -7 -70 -29z"/>
<path d="M3371 3669 c-39 -65 -101 -84 -166 -53 -48 22 -70 16 -70 -21 0 -39
49 -65 123 -65 63 0 106 16 150 58 38 36 44 85 13 102 -28 14 -29 14 -50 -21z"/>
<path d="M3936 2714 c-29 -28 -19 -40 56 -68 98 -36 307 -190 421 -310 154
-163 303 -466 393 -800 31 -117 31 -168 2 -197 -28 -26 -153 -122 -227 -174
-66 -46 -261 -165 -274 -168 -5 -1 -9 30 -8 73 3 132 -19 442 -38 544 -21 111
-36 131 -76 103 -17 -13 -17 -17 -1 -106 23 -125 36 -304 36 -502 l0 -165 -30
-22 c-43 -32 -35 -76 15 -81 6 -1 11 -50 13 -121 l3 -120 27 0 c48 0 52 13 52
164 l1 141 108 63 c59 34 111 62 115 62 4 0 6 -48 4 -107 -3 -96 -6 -114 -32
-163 -16 -30 -42 -71 -57 -90 -16 -19 -29 -39 -29 -44 0 -5 21 -6 47 -3 51 5
65 19 107 102 37 71 48 144 41 260 l-6 100 118 87 c79 59 121 84 128 77 6 -6
10 -89 9 -212 0 -207 -1 -215 -51 -370 -4 -14 1 -17 30 -17 44 0 48 7 77 120
25 99 36 288 23 403 -9 77 -9 78 16 90 34 16 34 48 -1 65 -20 9 -29 22 -33 50
-44 276 -177 627 -322 852 -106 163 -370 394 -545 475 -62 29 -90 31 -112 9z"/>
<path d="M2974 2701 c-99 -60 -259 -328 -344 -576 -48 -140 -73 -235 -134
-516 -62 -279 -62 -289 -5 -289 17 0 39 -5 49 -10 18 -9 19 -26 17 -310 -2
-324 -3 -319 51 -320 l22 0 0 264 c0 145 3 271 6 280 5 14 11 14 44 -5 l39
-22 -2 -266 -2 -266 31 -3 31 -3 7 183 c4 101 16 320 27 488 26 416 26 406
-12 425 -17 9 -33 15 -35 13 -2 -2 -8 -101 -15 -219 -6 -117 -14 -227 -18
-242 l-6 -29 -95 62 c-52 34 -96 64 -98 65 -7 6 104 490 140 610 85 285 259
585 366 630 37 16 43 48 13 65 -27 14 -42 13 -77 -9z"/>
</g>
</svg>
